<mxfile host="app.diagrams.net" modified="2022-06-01T14:37:45.181Z" agent="5.0 (Macintosh; Intel Mac OS X 10_15_7) AppleWebKit/605.1.15 (KHTML, like Gecko) Version/15.4 Safari/605.1.15" etag="bYalVqNsPoOr3P5SXzp7" version="18.2.0" type="github">
  <diagram id="O7KRNSU3oxUCZaLqxIPr" name="Page-1">
    <mxGraphModel dx="1212" dy="738" grid="1" gridSize="10" guides="1" tooltips="1" connect="1" arrows="1" fold="1" page="1" pageScale="1" pageWidth="850" pageHeight="1100" math="0" shadow="0">
      <root>
        <mxCell id="0" />
        <mxCell id="1" parent="0" />
        <mxCell id="4qe47Jg8lhrn-a_1lRAv-3" value="" style="edgeStyle=orthogonalEdgeStyle;rounded=0;orthogonalLoop=1;jettySize=auto;html=1;" edge="1" parent="1" source="4qe47Jg8lhrn-a_1lRAv-1" target="4qe47Jg8lhrn-a_1lRAv-2">
          <mxGeometry relative="1" as="geometry" />
        </mxCell>
        <mxCell id="4qe47Jg8lhrn-a_1lRAv-1" value="" style="rounded=0;whiteSpace=wrap;html=1;strokeColor=#3333FF;strokeWidth=3;" vertex="1" parent="1">
          <mxGeometry x="130" y="150" width="120" height="60" as="geometry" />
        </mxCell>
        <mxCell id="4qe47Jg8lhrn-a_1lRAv-2" value="" style="rounded=0;whiteSpace=wrap;html=1;" vertex="1" parent="1">
          <mxGeometry x="330" y="150" width="120" height="60" as="geometry" />
        </mxCell>
      </root>
    </mxGraphModel>
  </diagram>
</mxfile>
